<svg xmlns="http://www.w3.org/2000/svg" xmlns:xlink="http://www.w3.org/1999/xlink" width="64" height="64" preserveAspectRatio="xMidYMid meet" version="1.1" viewBox="0 0 640 640"><defs><path id="cnjjHHoal" d="M45.08 225.22L227.5 225.22L227.5 406.54L45.08 406.54L45.08 225.22Z"/><path id="dfAigqHUi" d="M411.46 67.86L593.88 67.86L593.88 249.18L411.46 249.18L411.46 67.86Z"/><path id="e6zoGPGd5" d="M406.84 406.1L589.26 406.1L589.26 587.42L406.84 587.42L406.84 406.1Z"/><path id="dTY799OQi" d="M137.74 344.23L137.75 344.23L121.69 363.3L91.96 327.98L108.01 308.92L121.69 325.16L162.5 276.7L178.55 295.77L137.74 344.23Z"/><path id="d2FA489u8M" d="M512.41 499.77L538.05 525.41L523.69 539.77L498.05 514.13L472.41 539.77L458.05 525.41L483.69 499.77L458.05 474.13L472.41 459.77L498.05 485.41L523.69 459.77L538.05 474.13L512.41 499.77Z"/><path id="i8NhOEt2a" d="M328.6 505.44L328.6 145.44"/><path id="cc7McJlwf" d="M340.41 320L215.41 320"/><path id="a5HlBvptBl" d="M406.84 496.76L316.84 496.76"/><path id="a1JBYmHHOE" d="M411.46 158.52L321.46 158.52"/><path id="arT02K67Q" d="M502.74 185.06L502.74 185.07L486.69 204.13L456.95 168.82L473.01 149.75L486.69 166L527.49 117.54L543.55 136.6L502.74 185.06Z"/></defs><g><g><g><g><use fill-opacity="0" stroke="#2472bb" stroke-opacity="1" stroke-width="25" opacity="1" xlink:href="#cnjjHHoal"/></g></g><g><g><use fill-opacity="0" stroke="#2472bb" stroke-opacity="1" stroke-width="25" opacity="1" xlink:href="#dfAigqHUi"/></g></g><g><g><use fill-opacity="0" stroke="#2472bb" stroke-opacity="1" stroke-width="25" opacity="1" xlink:href="#e6zoGPGd5"/></g></g><g><use fill="#000" fill-opacity="1" opacity="1" xlink:href="#dTY799OQi"/></g><g><use fill="red" fill-opacity="1" opacity="1" xlink:href="#d2FA489u8M"/></g><g><g><use fill-opacity="0" stroke="#2472bb" stroke-opacity="1" stroke-width="25" opacity="1" xlink:href="#i8NhOEt2a"/></g></g><g><g><use fill-opacity="0" stroke="#2472bb" stroke-opacity="1" stroke-width="25" opacity="1" xlink:href="#cc7McJlwf"/></g></g><g><g><use fill-opacity="0" stroke="#2472bb" stroke-opacity="1" stroke-width="25" opacity="1" xlink:href="#a5HlBvptBl"/></g></g><g><g><use fill-opacity="0" stroke="#2472bb" stroke-opacity="1" stroke-width="25" opacity="1" xlink:href="#a1JBYmHHOE"/></g></g><g><use fill="#000" fill-opacity="1" opacity="1" xlink:href="#arT02K67Q"/></g></g></g></svg>